<svg width="90" height="60" viewBox="0 0 90 60" fill="none" xmlns="http://www.w3.org/2000/svg">
<rect width="90" height="60" rx="8" fill="#1BA27A"/>
<path d="M55.027 18H34.6255V22.9253H42.3636V30.1647H47.2889V22.9253H55.027V18Z" fill="white"/>
<path d="M44.8732 30.9365C38.472 30.9365 33.2823 29.9235 33.2823 28.6736C33.2823 27.4239 38.4718 26.4107 44.8732 26.4107C51.2744 26.4107 56.4639 27.4239 56.4639 28.6736C56.4639 29.9235 51.2744 30.9365 44.8732 30.9365ZM57.8879 29.0509C57.8879 27.4392 52.0611 26.1329 44.8732 26.1329C37.6856 26.1329 31.8584 27.4392 31.8584 29.0509C31.8584 30.4701 36.3767 31.6525 42.364 31.9145V42.3068H47.2889V31.9186C53.3223 31.6648 57.8879 30.4774 57.8879 29.0509Z" fill="white"/>
</svg>

